<svg width="573" height="183" viewBox="0 0 573 183" fill="none" xmlns="http://www.w3.org/2000/svg">
<path d="M0 116.203V1.04688H35.0703L44.7539 71.2529L54.3721 1.04688H89.7695V116.203H68.7012V33.2383L55.4844 116.203H34.8086L20.8066 33.2383V116.203H0Z" fill="#F2285A"/>
<path d="M127.189 117.25C117.985 117.25 110.941 114.48 106.055 108.94C101.213 103.357 98.7925 95.3092 98.7925 84.7969V30.0977C98.7925 20.2396 101.192 12.7588 105.99 7.65527C110.832 2.55176 117.898 0 127.189 0C136.48 0 143.525 2.55176 148.323 7.65527C153.165 12.7588 155.586 20.2396 155.586 30.0977V84.7969C155.586 95.3092 153.143 103.357 148.257 108.94C143.416 114.48 136.393 117.25 127.189 117.25ZM127.385 96.0508C130.875 96.0508 132.62 92.6702 132.62 85.9092V29.7051C132.62 24.0345 130.919 21.1992 127.516 21.1992C123.678 21.1992 121.758 24.0999 121.758 29.9014V86.04C121.758 89.6169 122.195 92.1904 123.067 93.7607C123.939 95.2874 125.379 96.0508 127.385 96.0508Z" fill="#F2285A"/>
<path d="M164.609 116.203V1.04688H188.294L198.894 56.2041V1.04688H221.14V116.203H198.632L187.116 58.625V116.203H164.609Z" fill="#F2285A"/>
<path d="M258.559 117.25C249.355 117.25 242.311 114.48 237.425 108.94C232.584 103.357 230.163 95.3092 230.163 84.7969V30.0977C230.163 20.2396 232.562 12.7588 237.36 7.65527C242.202 2.55176 249.268 0 258.559 0C267.85 0 274.895 2.55176 279.693 7.65527C284.535 12.7588 286.956 20.2396 286.956 30.0977V84.7969C286.956 95.3092 284.513 103.357 279.628 108.94C274.786 114.48 267.763 117.25 258.559 117.25ZM258.756 96.0508C262.245 96.0508 263.99 92.6702 263.99 85.9092V29.7051C263.99 24.0345 262.289 21.1992 258.886 21.1992C255.048 21.1992 253.129 24.0999 253.129 29.9014V86.04C253.129 89.6169 253.565 92.1904 254.437 93.7607C255.31 95.2874 256.749 96.0508 258.756 96.0508Z" fill="#F2285A"/>
<path d="M292.838 116.203L303.961 1.04688H343.023L353.949 116.203H332.161L330.526 97.6211H316.655L315.215 116.203H292.838ZM318.29 79.2354H328.759L323.721 20.6758H322.674L318.29 79.2354Z" fill="#F2285A"/>
<path d="M388.098 117.25C377.585 117.25 369.995 114.633 365.328 109.398C360.704 104.164 358.392 95.8327 358.392 84.4043V73.1504H381.162V87.5449C381.162 90.2057 381.555 92.2995 382.34 93.8262C383.168 95.3092 384.586 96.0508 386.593 96.0508C388.686 96.0508 390.126 95.4401 390.911 94.2188C391.74 92.9974 392.154 90.9909 392.154 88.1992C392.154 84.666 391.805 81.7217 391.107 79.3662C390.409 76.9671 389.188 74.6989 387.443 72.5615C385.742 70.3805 383.365 67.8506 380.311 64.9717L369.973 55.1572C362.253 47.8727 358.392 39.5413 358.392 30.1631C358.392 20.3486 360.661 12.8678 365.197 7.7207C369.777 2.57357 376.386 0 385.022 0C395.578 0 403.059 2.81348 407.465 8.44043C411.914 14.0674 414.139 22.6169 414.139 34.0889H390.715V26.1719C390.715 24.6016 390.257 23.3802 389.341 22.5078C388.468 21.6354 387.269 21.1992 385.742 21.1992C383.91 21.1992 382.558 21.7227 381.685 22.7695C380.857 23.7728 380.442 25.0814 380.442 26.6953C380.442 28.3092 380.878 30.054 381.751 31.9297C382.623 33.8053 384.346 35.9645 386.92 38.4072L400.202 51.166C402.863 53.696 405.306 56.3786 407.53 59.2139C409.755 62.0055 411.543 65.277 412.895 69.0283C414.248 72.736 414.924 77.2725 414.924 82.6377C414.924 93.4554 412.917 101.939 408.904 108.09C404.935 114.197 397.999 117.25 388.098 117.25Z" fill="#F2285A"/>
<path d="M449.857 117.25C440.653 117.25 433.608 114.48 428.723 108.94C423.881 103.357 421.46 95.3092 421.46 84.7969V30.0977C421.46 20.2396 423.859 12.7588 428.658 7.65527C433.499 2.55176 440.566 0 449.857 0C459.148 0 466.192 2.55176 470.991 7.65527C475.832 12.7588 478.253 20.2396 478.253 30.0977V84.7969C478.253 95.3092 475.811 103.357 470.925 108.94C466.083 114.48 459.061 117.25 449.857 117.25ZM450.053 96.0508C453.543 96.0508 455.288 92.6702 455.288 85.9092V29.7051C455.288 24.0345 453.586 21.1992 450.184 21.1992C446.345 21.1992 444.426 24.0999 444.426 29.9014V86.04C444.426 89.6169 444.862 92.1904 445.735 93.7607C446.607 95.2874 448.047 96.0508 450.053 96.0508Z" fill="#F2285A"/>
<path d="M487.276 116.203V1.04688H518.486C526.861 1.04688 532.946 3.09701 536.741 7.19727C540.58 11.2539 542.499 17.9714 542.499 27.3496V32.3877C542.499 37.7966 541.518 42.1803 539.555 45.5391C537.635 48.8978 534.691 51.1006 530.722 52.1475C535.912 53.4561 539.38 56.5312 541.125 61.373C542.913 66.1712 543.808 72.0381 543.808 78.9736C543.808 86.4326 543.11 92.9538 541.714 98.5371C540.318 104.12 537.788 108.461 534.124 111.558C530.46 114.655 525.247 116.203 518.486 116.203H487.276ZM509.784 44.4268H514.495C516.633 44.4268 518.007 43.598 518.617 41.9404C519.228 40.2829 519.533 38.2982 519.533 35.9863V24.4053C519.533 20.6976 517.897 18.8438 514.626 18.8438H509.784V44.4268ZM512.074 95.9199C518.05 95.9199 521.038 93.0846 521.038 87.4141V73.0195C521.038 69.748 520.536 67.1745 519.533 65.2988C518.574 63.3796 516.742 62.4199 514.037 62.4199H509.784V95.7891C510.744 95.8763 511.507 95.9199 512.074 95.9199Z" fill="#F2285A"/>
<path d="M550.083 116.203V1.04688H572.329V116.203H550.083Z" fill="#F2285A"/>
<path d="M23.8165 140.803V182.203H16.4365L7.79648 160.123V182.203H0.416485V140.803H7.79648L16.4365 163.843V140.803H23.8165Z" fill="#F2285A"/>
<path d="M45.5145 179.683C43.4145 177.643 42.3945 174.703 42.3945 170.803V152.143C42.3945 148.243 43.4745 145.303 45.6945 143.263C47.8545 141.223 50.7945 140.203 54.3945 140.203C57.8745 140.203 60.6345 141.223 62.7345 143.263C64.8344 145.303 65.9145 148.243 65.9145 152.143V170.803C65.9145 174.643 64.7745 177.583 62.5545 179.623C60.3345 181.663 57.4545 182.683 53.9745 182.683C50.3745 182.683 47.5545 181.723 45.5145 179.683ZM57.3945 174.463C58.1145 173.383 58.5345 171.883 58.5345 169.963V153.343C58.5345 151.243 58.1745 149.623 57.4545 148.543C56.7345 147.463 55.6545 146.923 54.2145 146.923C52.6545 146.923 51.5145 147.463 50.7945 148.543C50.0745 149.623 49.7745 151.243 49.7745 153.403V170.023C49.7745 174.043 51.2145 176.083 54.2145 176.083C55.5945 176.083 56.6745 175.543 57.3945 174.463Z" fill="#F2285A"/>
<path d="M82.3409 140.803H90.4409L95.4209 171.763L100.461 140.803H108.561L99.2609 182.203H91.6409L82.3409 140.803Z" fill="#F2285A"/>
<path d="M132.574 147.463V157.843H142.174V164.443H132.574V175.603H143.734V182.203H125.254V140.803H143.734V147.463H132.574Z" fill="#F2285A"/>
<path d="M161.554 140.803H168.934V175.603H180.034V182.203H161.554V140.803Z" fill="#F2285A"/>
<path d="M221.914 140.803H229.234V182.203H221.914V140.803Z" fill="#F2285A"/>
<path d="M271.706 140.803V182.203H264.326L255.686 160.123V182.203H248.306V140.803H255.686L264.326 163.843V140.803H271.706Z" fill="#F2285A"/>
<path d="M309.904 147.463H302.764V182.203H295.444V147.463H288.243V140.803H309.904V147.463Z" fill="#F2285A"/>
<path d="M329.352 179.683C327.252 177.643 326.232 174.703 326.232 170.803V152.143C326.232 148.243 327.312 145.303 329.532 143.263C331.692 141.223 334.632 140.203 338.232 140.203C341.712 140.203 344.472 141.223 346.572 143.263C348.672 145.303 349.752 148.243 349.752 152.143V170.803C349.752 174.643 348.612 177.583 346.392 179.623C344.172 181.663 341.292 182.683 337.812 182.683C334.212 182.683 331.392 181.723 329.352 179.683ZM341.232 174.463C341.952 173.383 342.372 171.883 342.372 169.963V153.343C342.372 151.243 342.012 149.623 341.292 148.543C340.572 147.463 339.492 146.923 338.052 146.923C336.492 146.923 335.352 147.463 334.632 148.543C333.912 149.623 333.612 151.243 333.612 153.403V170.023C333.612 174.043 335.052 176.083 338.052 176.083C339.432 176.083 340.512 175.543 341.232 174.463Z" fill="#F2285A"/>
<path d="M421.847 140.803V182.203H414.467V157.963L409.187 174.163H405.227L400.007 158.143V182.203H392.627V140.803H400.007L407.207 162.643L414.467 140.803H421.847Z" fill="#F2285A"/>
<path d="M446.164 181.303C444.484 180.343 443.104 179.023 442.144 177.283C441.184 175.603 440.704 173.623 440.704 171.343V140.803H448.084V171.163C448.084 172.843 448.384 174.103 449.044 174.883C449.644 175.663 450.664 176.023 451.984 176.023C454.564 176.023 455.884 174.403 455.884 171.163V140.803H463.264V171.343C463.264 173.623 462.784 175.603 461.824 177.283C460.864 179.023 459.484 180.343 457.804 181.303C456.064 182.263 454.144 182.683 451.984 182.683C449.824 182.683 447.844 182.263 446.164 181.303Z" fill="#F2285A"/>
<path d="M483.662 179.503C481.742 177.403 480.722 174.403 480.722 170.443H487.682C487.742 172.483 488.162 173.983 488.882 174.943C489.602 175.903 490.682 176.383 492.122 176.383C493.562 176.383 494.642 175.903 495.302 175.063C495.962 174.163 496.262 172.783 496.262 170.863C496.262 169.243 495.902 167.983 495.182 167.023C494.462 166.063 493.202 165.223 491.462 164.443L488.642 163.183C485.942 161.983 484.022 160.483 482.822 158.743C481.622 156.943 481.022 154.603 481.022 151.663C481.022 148.183 482.042 145.363 484.082 143.323C486.122 141.223 488.822 140.203 492.242 140.203C495.662 140.203 498.302 141.223 500.162 143.263C502.022 145.303 502.982 148.303 503.102 152.203H496.322C496.322 150.283 495.962 148.903 495.362 147.943C494.762 146.983 493.682 146.563 492.242 146.563C489.602 146.563 488.222 148.123 488.222 151.303C488.222 152.743 488.582 153.883 489.242 154.723C489.902 155.563 490.982 156.343 492.542 157.003L495.242 158.203C498.122 159.523 500.222 161.083 501.542 163.003C502.862 164.923 503.462 167.503 503.462 170.683C503.462 174.523 502.502 177.523 500.462 179.563C498.482 181.663 495.662 182.683 492.002 182.683C488.342 182.683 485.582 181.663 483.662 179.503Z" fill="#F2285A"/>
<path d="M521.689 140.803H529.009V182.203H521.689V140.803Z" fill="#F2285A"/>
<path d="M550.961 179.683C548.861 177.643 547.841 174.703 547.841 170.803V152.143C547.841 148.243 548.921 145.303 551.141 143.263C553.301 141.223 556.241 140.203 559.841 140.203C563.261 140.203 566.021 141.223 568.181 143.203C570.281 145.243 571.361 148.243 571.361 152.323V153.583H563.981V152.383C563.981 150.523 563.561 149.143 562.781 148.243C562 147.343 560.981 146.863 559.661 146.863C558.101 146.863 556.961 147.403 556.241 148.483C555.521 149.563 555.221 151.183 555.221 153.343V169.963C555.221 174.043 556.661 176.023 559.661 176.023C560.981 176.023 562 175.603 562.781 174.643C563.561 173.743 563.981 172.363 563.981 170.563V169.483H571.301V170.623C571.301 174.643 570.161 177.643 567.941 179.683C565.721 181.723 562.901 182.683 559.421 182.683C555.821 182.683 553.001 181.723 550.961 179.683Z" fill="#F2285A"/>
</svg>
