<svg width="410" height="129" viewBox="0 0 410 129" fill="none" xmlns="http://www.w3.org/2000/svg">
  <path
    d="M1 105.25V22.75H26.0008L32.904 73.0469L39.7606 22.75H64.9946V105.25H49.9755V45.8125L40.5535 105.25H25.8143L15.8326 45.8125V105.25H1Z"
    fill="#F2285A" />
  <path
    d="M91.6702 106C85.109 106 80.0871 104.016 76.6044 100.047C73.1528 96.0469 71.4269 90.2812 71.4269 82.75V43.5625C71.4269 36.5 73.1372 31.1406 76.5577 27.4844C80.0093 23.8281 85.0468 22 91.6702 22C98.2935 22 103.315 23.8281 106.736 27.4844C110.188 31.1406 111.913 36.5 111.913 43.5625V82.75C111.913 90.2812 110.172 96.0469 106.689 100.047C103.238 104.016 98.2313 106 91.6702 106ZM91.8101 90.8125C94.2977 90.8125 95.5415 88.3906 95.5415 83.5469V43.2812C95.5415 39.2187 94.3288 37.1875 91.9034 37.1875C89.167 37.1875 87.7988 39.2656 87.7988 43.4219V83.6406C87.7988 86.2031 88.1097 88.0469 88.7316 89.1719C89.3535 90.2656 90.3797 90.8125 91.8101 90.8125Z"
    fill="#F2285A" />
  <path d="M118.346 105.25V22.75H135.231L142.787 62.2656V22.75H158.645V105.25H142.6L134.391 64V105.25H118.346Z"
    fill="#F2285A" />
  <path
    d="M185.321 106C178.76 106 173.738 104.016 170.255 100.047C166.804 96.0469 165.078 90.2812 165.078 82.75V43.5625C165.078 36.5 166.788 31.1406 170.209 27.4844C173.66 23.8281 178.698 22 185.321 22C191.944 22 196.966 23.8281 200.387 27.4844C203.838 31.1406 205.564 36.5 205.564 43.5625V82.75C205.564 90.2812 203.823 96.0469 200.34 100.047C196.889 104.016 191.882 106 185.321 106ZM185.461 90.8125C187.949 90.8125 189.192 88.3906 189.192 83.5469V43.2812C189.192 39.2187 187.98 37.1875 185.554 37.1875C182.818 37.1875 181.45 39.2656 181.45 43.4219V83.6406C181.45 86.2031 181.761 88.0469 182.382 89.1719C183.004 90.2656 184.031 90.8125 185.461 90.8125Z"
    fill="#F2285A" />
  <path
    d="M209.758 105.25L217.687 22.75H245.533L253.322 105.25H237.79L236.624 91.9375H226.736L225.71 105.25H209.758ZM227.902 78.7656H235.365L231.773 36.8125H231.027L227.902 78.7656Z"
    fill="#F2285A" />
  <path
    d="M277.666 106C270.172 106 264.761 104.125 261.434 100.375C258.138 96.625 256.49 90.6562 256.49 82.4687V74.4062H272.722V84.7187C272.722 86.625 273.002 88.125 273.561 89.2187C274.152 90.2812 275.163 90.8125 276.593 90.8125C278.086 90.8125 279.112 90.375 279.672 89.5C280.262 88.625 280.558 87.1875 280.558 85.1875C280.558 82.6562 280.309 80.5469 279.811 78.8594C279.314 77.1406 278.443 75.5156 277.199 73.9844C275.987 72.4219 274.292 70.6094 272.115 68.5469L264.746 61.5156C259.242 56.2969 256.49 50.3281 256.49 43.6094C256.49 36.5781 258.107 31.2187 261.341 27.5312C264.606 23.8438 269.317 22 275.474 22C282.999 22 288.332 24.0156 291.472 28.0469C294.644 32.0781 296.23 38.2031 296.23 46.4219H279.532V40.75C279.532 39.625 279.205 38.75 278.552 38.125C277.93 37.5 277.075 37.1875 275.987 37.1875C274.681 37.1875 273.717 37.5625 273.095 38.3125C272.504 39.0312 272.209 39.9687 272.209 41.125C272.209 42.2812 272.52 43.5312 273.141 44.875C273.763 46.2187 274.992 47.7656 276.826 49.5156L286.295 58.6562C288.192 60.4687 289.933 62.3906 291.519 64.4219C293.105 66.4219 294.38 68.7656 295.344 71.4531C296.308 74.1094 296.79 77.3594 296.79 81.2031C296.79 88.9531 295.359 95.0312 292.498 99.4375C289.669 103.812 284.725 106 277.666 106Z"
    fill="#F2285A" />
  <path
    d="M321.693 106C315.131 106 310.11 104.016 306.627 100.047C303.175 96.0469 301.449 90.2812 301.449 82.75V43.5625C301.449 36.5 303.16 31.1406 306.58 27.4844C310.032 23.8281 315.069 22 321.693 22C328.316 22 333.338 23.8281 336.758 27.4844C340.21 31.1406 341.936 36.5 341.936 43.5625V82.75C341.936 90.2812 340.195 96.0469 336.712 100.047C333.26 104.016 328.254 106 321.693 106ZM321.833 90.8125C324.32 90.8125 325.564 88.3906 325.564 83.5469V43.2812C325.564 39.2187 324.351 37.1875 321.926 37.1875C319.189 37.1875 317.821 39.2656 317.821 43.4219V83.6406C317.821 86.2031 318.132 88.0469 318.754 89.1719C319.376 90.2656 320.402 90.8125 321.833 90.8125Z"
    fill="#F2285A" />
  <path
    d="M348.368 105.25V22.75H370.617C376.587 22.75 380.925 24.2188 383.631 27.1562C386.367 30.0625 387.735 34.875 387.735 41.5937V45.2031C387.735 49.0781 387.036 52.2187 385.636 54.625C384.268 57.0312 382.169 58.6094 379.339 59.3594C383.04 60.2969 385.512 62.5 386.756 65.9687C388.031 69.4062 388.668 73.6094 388.668 78.5781C388.668 83.9219 388.17 88.5937 387.175 92.5937C386.18 96.5937 384.377 99.7031 381.765 101.922C379.153 104.141 375.437 105.25 370.617 105.25H348.368ZM364.413 53.8281H367.772C369.295 53.8281 370.275 53.2344 370.71 52.0469C371.146 50.8594 371.363 49.4375 371.363 47.7812V39.4844C371.363 36.8281 370.197 35.5 367.865 35.5H364.413V53.8281ZM366.046 90.7187C370.306 90.7187 372.436 88.6875 372.436 84.625V74.3125C372.436 71.9687 372.079 70.125 371.363 68.7812C370.679 67.4062 369.373 66.7187 367.445 66.7187H364.413V90.625C365.098 90.6875 365.642 90.7187 366.046 90.7187Z"
    fill="#F2285A" />
  <path d="M393.141 105.25V22.75H409V105.25H393.141Z" fill="#F2285A" />
</svg>