<svg viewBox="0 0 410 129" fill="none" xmlns="http://www.w3.org/2000/svg">
  <path
    d="M2.65625 112L5.52734 12.4688H25.8984L33.2129 74.6758C33.2585 74.9948 33.3268 75.5189 33.418 76.248C33.5091 76.9316 33.5775 77.3646 33.623 77.5469H33.8281C33.8281 77.3646 33.8737 76.9316 33.9648 76.248C34.056 75.5189 34.1471 74.9948 34.2383 74.6758L41.0059 12.4688H61.582L64.4531 112H47.3633L46.9531 61.9609C46.9531 61.5508 46.9303 60.0013 46.8848 57.3125C46.8392 54.6237 46.8164 52.9147 46.8164 52.1855H46.6113C46.5202 52.9147 46.3835 54.6237 46.2012 57.3125C46.0645 59.9557 45.9733 61.5052 45.9277 61.9609L41.2109 112H25.7617L20.9082 61.7559C20.9082 61.2546 20.8171 59.7051 20.6348 57.1074C20.498 54.4642 20.4069 52.8919 20.3613 52.3906H20.0879C20.0879 52.8919 20.0423 54.4642 19.9512 57.1074C19.9056 59.7051 19.8828 61.2773 19.8828 61.8242L19.4727 112H2.65625ZM69.2383 85.6816V37.625C69.2383 28.6016 71.084 21.9935 74.7754 17.8008C78.5124 13.5625 83.7988 11.4434 90.6348 11.4434C97.6074 11.4434 102.894 13.5625 106.494 17.8008C110.14 21.9935 111.963 28.6016 111.963 37.625V85.6816C111.963 94.6139 110.094 101.404 106.357 106.053C102.666 110.701 97.4251 113.025 90.6348 113.025C83.89 113.025 78.6263 110.724 74.8438 106.121C71.1068 101.473 69.2383 94.6595 69.2383 85.6816ZM87.2168 90.9453C87.2168 94.5 87.4674 96.7786 87.9688 97.7812C88.5156 98.7383 89.4043 99.2168 90.6348 99.2168C91.8197 99.2168 92.6855 98.7383 93.2324 97.7812C93.7793 96.7786 94.0527 94.5 94.0527 90.9453V33.4551C94.0527 30.3105 93.8021 28.2142 93.3008 27.166C92.7995 26.1178 91.9336 25.5938 90.7031 25.5938C89.4271 25.5938 88.5156 26.1178 87.9688 27.166C87.4674 28.2142 87.2168 30.3105 87.2168 33.4551V90.9453ZM116.68 112V12.4688H133.154L140.127 70.0957C140.218 70.7793 140.4 72.306 140.674 74.6758C140.993 77 141.221 78.5267 141.357 79.2559H141.562C141.517 78.5723 141.494 76.9772 141.494 74.4707C141.494 71.9642 141.494 70.4831 141.494 70.0273V12.4688H157.354V112H141.289L134.111 57.1074C134.066 56.4694 133.838 55.0111 133.428 52.7324C133.018 50.4082 132.767 48.8587 132.676 48.084H132.402C132.448 48.8132 132.471 50.4082 132.471 52.8691C132.516 55.2845 132.539 56.6973 132.539 57.1074V112H116.68ZM162.07 85.6816V37.625C162.07 28.6016 163.916 21.9935 167.607 17.8008C171.344 13.5625 176.631 11.4434 183.467 11.4434C190.439 11.4434 195.726 13.5625 199.326 17.8008C202.972 21.9935 204.795 28.6016 204.795 37.625V85.6816C204.795 94.6139 202.926 101.404 199.189 106.053C195.498 110.701 190.257 113.025 183.467 113.025C176.722 113.025 171.458 110.724 167.676 106.121C163.939 101.473 162.07 94.6595 162.07 85.6816ZM180.049 90.9453C180.049 94.5 180.299 96.7786 180.801 97.7812C181.348 98.7383 182.236 99.2168 183.467 99.2168C184.652 99.2168 185.518 98.7383 186.064 97.7812C186.611 96.7786 186.885 94.5 186.885 90.9453V33.4551C186.885 30.3105 186.634 28.2142 186.133 27.166C185.632 26.1178 184.766 25.5938 183.535 25.5938C182.259 25.5938 181.348 26.1178 180.801 27.166C180.299 28.2142 180.049 30.3105 180.049 33.4551V90.9453ZM205.82 112L217.031 12.5371H240.273L251.006 112H234.053L229.746 57.6543C229.564 55.6035 229.29 52.4818 228.926 48.2891C228.561 44.0508 228.311 41.2936 228.174 40.0176H227.9C227.764 41.2936 227.536 44.0508 227.217 48.2891C226.943 52.4818 226.715 55.6035 226.533 57.6543L222.773 112H205.82ZM215.869 90.2617L216.826 78.0254H240.752L241.641 90.2617H215.869ZM251.963 90.877V78.2988H268.301V90.3301C268.301 94.0671 268.551 96.5964 269.053 97.918C269.554 99.194 270.557 99.832 272.061 99.832C273.519 99.832 274.476 99.1484 274.932 97.7812C275.433 96.3685 275.684 93.0417 275.684 87.8008C275.729 82.8333 275.228 79.1191 274.18 76.6582C273.132 74.1973 271.012 71.0527 267.822 67.2246C262.171 62.2116 258.229 57.1758 255.996 52.1172C253.763 47.0586 252.624 41.4987 252.578 35.4375C252.487 26.5508 254.196 20.3301 257.705 16.7754C261.214 13.2207 266.227 11.4434 272.744 11.4434C279.307 11.4434 284.069 13.1751 287.031 16.6387C290.039 20.1022 291.543 24.8874 291.543 30.9941V43.8457H276.094V32.4297C275.957 29.832 275.729 27.9635 275.41 26.8242C275.137 25.6849 274.362 25.1152 273.086 25.1152C271.81 25.1152 270.99 25.6621 270.625 26.7559C270.306 27.804 270.146 30.5612 270.146 35.0273C270.146 38.1263 270.898 40.9518 272.402 43.5039C273.906 46.0104 275.661 48.6309 277.666 51.3652C283.363 56.0592 287.327 60.8444 289.561 65.7207C291.839 70.597 292.979 77.319 292.979 85.8867C292.979 95.2292 291.452 102.088 288.398 106.463C285.345 110.792 280.036 112.957 272.471 112.957C264.906 112.957 259.596 111.294 256.543 107.967C253.49 104.594 251.963 98.8978 251.963 90.877ZM297.285 85.6816V37.625C297.285 28.6016 299.131 21.9935 302.822 17.8008C306.559 13.5625 311.846 11.4434 318.682 11.4434C325.654 11.4434 330.941 13.5625 334.541 17.8008C338.187 21.9935 340.01 28.6016 340.01 37.625V85.6816C340.01 94.6139 338.141 101.404 334.404 106.053C330.713 110.701 325.472 113.025 318.682 113.025C311.937 113.025 306.673 110.724 302.891 106.121C299.154 101.473 297.285 94.6595 297.285 85.6816ZM315.264 90.9453C315.264 94.5 315.514 96.7786 316.016 97.7812C316.562 98.7383 317.451 99.2168 318.682 99.2168C319.867 99.2168 320.732 98.7383 321.279 97.7812C321.826 96.7786 322.1 94.5 322.1 90.9453V33.4551C322.1 30.3105 321.849 28.2142 321.348 27.166C320.846 26.1178 319.98 25.5938 318.75 25.5938C317.474 25.5938 316.562 26.1178 316.016 27.166C315.514 28.2142 315.264 30.3105 315.264 33.4551V90.9453ZM345 112V12.4688H365.986C371.683 12.4688 376.081 14.4512 379.18 18.416C382.279 22.3809 383.851 28.6699 383.896 37.2832C383.896 45.304 383.053 50.7956 381.367 53.7578C379.681 56.6745 377.471 58.5658 374.736 59.4316V59.5C377.926 60.3203 380.592 62.3939 382.734 65.7207C384.922 69.0475 386.016 74.9948 386.016 83.5625C386.016 93.9531 384.215 101.29 380.615 105.574C377.015 109.858 371.82 112 365.029 112H345ZM361.543 98.875H363.867C365.645 98.875 366.852 97.8268 367.49 95.7305C368.174 93.5885 368.516 89.0312 368.516 82.0586C368.516 75.3138 368.105 71.0072 367.285 69.1387C366.51 67.2702 365.394 66.3359 363.936 66.3359H361.543V98.875ZM361.543 56.082H363.32C365.052 56.082 366.283 55.2845 367.012 53.6895C367.741 52.0944 368.083 47.9473 368.037 41.248C368.037 34.2298 367.718 29.9915 367.08 28.5332C366.488 27.0293 365.439 26.2773 363.936 26.2773H361.543V56.082ZM389.434 112V12.4688H406.797V112H389.434Z"
    fill="#F2285A" />
</svg>